<svg
                aria-hidden="true"
                xmlns="http://www.w3.org/2000/svg"
                xmlnsXlink="http://www.w3.org/1999/xlink"
                version="1.1"
                id="Capa_1"
                x="0px"
                y="0px"
                viewBox="0 0 512.001 512.001"
                style={{ enableBackground: 'new 0 0 512.001 512.001' }}
                xmlSpace="preserve"
                width="512px"
                height="512px"
                className
              >
                <g>
                  <path
                    style={{ fill: '#FDD008' }}
                    d="M159.22,501.506l-23.19-64.449c-0.696-1.934-2.607-3.156-4.655-2.976l-68.231,6.004  c-3.742,0.329-6.233-3.78-4.209-6.945l175.534-274.57l108.355,69.272L167.291,502.411  C165.267,505.576,160.492,505.04,159.22,501.506z"
                    data-original="#FF4C4C"
                    className
                    data-old_color="#FF4C4C"
                  />
                  <path
                    style={{ fill: '#FFFFFF' }}
                    d="M305.324,203.868l-37.87-24.211L105.493,436.358l25.883-2.278c2.047-0.18,3.959,1.042,4.655,2.976  l8.051,22.374L305.324,203.868z"
                    data-original="#E1EFFB"
                    className
                    data-old_color="#E1EFFB"
                  />
                  <path
                    style={{ fill: '#FDD008' }}
                    d="M352.78,501.506l23.19-64.449c0.696-1.934,2.607-3.156,4.655-2.976l68.231,6.004  c3.742,0.329,6.233-3.78,4.209-6.945L277.531,158.57l-108.355,69.272L344.71,502.411C346.733,505.576,351.508,505.04,352.78,501.506  z"
                    data-original="#FF4C4C"
                    className
                    data-old_color="#FF4C4C"
                  />
                  <path
                    style={{ fill: '#FFFFFF' }}
                    d="M206.674,203.868l37.87-24.211l161.961,256.701l-25.883-2.278c-2.047-0.18-3.959,1.042-4.655,2.976  l-8.051,22.374L206.674,203.868z"
                    data-original="#E1EFFB"
                    className
                    data-old_color="#E1EFFB"
                  />
                  <path
                    style={{ fill: '#FDD008' }}
                    d="M274.256,15.558L274.256,15.558c7.438,8.156,19.383,10.389,29.265,5.471l0,0  c13.019-6.479,28.79-0.369,34.046,13.19l0,0c3.989,10.292,14.321,16.689,25.312,15.673l0,0c14.48-1.339,26.98,10.056,26.983,24.598  l0,0c0.002,11.038,7.325,20.735,17.941,23.758l0,0c13.986,3.982,21.525,19.123,16.275,32.684l0,0  c-3.985,10.293-0.66,21.982,8.147,28.635l0,0c11.603,8.766,13.164,25.607,3.369,36.356l0,0c-7.435,8.159-8.556,20.259-2.747,29.645  l0,0c7.653,12.366,3.024,28.634-9.992,35.118l0,0c-9.88,4.922-15.296,15.8-13.27,26.651l0,0  c2.669,14.295-7.524,27.792-22.003,29.137l0,0c-10.991,1.021-19.971,9.207-22.002,20.057l0,0  c-2.675,14.294-17.055,23.198-31.043,19.221l0,0c-10.617-3.019-21.949,1.371-27.761,10.755l0,0  c-7.658,12.362-24.284,15.47-35.89,6.709l0,0c-8.81-6.65-20.962-6.65-29.772,0l0,0c-11.607,8.761-28.232,5.653-35.89-6.709l0,0  c-5.813-9.383-17.144-13.773-27.761-10.755l0,0c-13.988,3.977-28.368-4.927-31.043-19.221l0,0  c-2.03-10.85-11.011-19.036-22.002-20.057l0,0c-14.48-1.345-24.673-14.842-22.003-29.137l0,0c2.026-10.85-3.391-21.728-13.27-26.651  l0,0c-13.016-6.485-17.645-22.753-9.992-35.118l0,0c5.809-9.386,4.688-21.486-2.747-29.645l0,0  c-9.795-10.749-8.234-27.59,3.369-36.356l0,0c8.807-6.654,12.133-18.342,8.147-28.635l0,0c-5.25-13.561,2.289-28.702,16.275-32.684  l0,0c10.616-3.023,17.939-12.72,17.941-23.758l0,0c0.003-14.542,12.502-25.937,26.983-24.598l0,0  c10.991,1.016,21.323-5.381,25.312-15.673l0,0c5.256-13.559,21.027-19.669,34.046-13.19l0,0c9.882,4.918,21.827,2.685,29.265-5.471  l0,0C247.543,4.813,264.457,4.813,274.256,15.558z"
                    data-original="#FFB125"
                    className
                    data-old_color="#FFB125"
                  />
                  <path
                    style={{ fill: '#FDD008' }}
                    d="M435.595,195.923L435.595,195.923c9.795-10.749,8.234-27.59-3.369-36.356l0,0  c-8.807-6.653-12.133-18.342-8.147-28.635c5.25-13.561-2.289-28.702-16.275-32.684l0,0c-10.616-3.023-17.939-12.72-17.941-23.758  l0,0c-0.003-14.542-12.502-25.937-26.983-24.598c-10.991,1.016-21.323-5.381-25.312-15.673  c-5.256-13.559-21.027-19.669-34.046-13.19l0,0c-9.882,4.918-21.827,2.685-29.265-5.471c-9.799-10.745-26.713-10.745-36.512,0  c-1.288,1.412-2.718,2.634-4.242,3.685c7.278,5.017,16.852,5.852,25.023,1.786l0,0c13.019-6.479,28.79-0.37,34.046,13.19  c3.989,10.292,14.321,16.689,25.312,15.673c14.48-1.339,26.98,10.056,26.983,24.598l0,0c0.002,11.038,7.326,20.735,17.941,23.758  l0,0c13.986,3.983,21.525,19.123,16.275,32.684c-3.985,10.293-0.66,21.982,8.147,28.635l0,0  c11.603,8.766,13.164,25.607,3.369,36.356l0,0c-7.435,8.159-8.556,20.259-2.747,29.645c7.653,12.365,3.024,28.633-9.992,35.118l0,0  c-9.88,4.922-15.296,15.8-13.27,26.651c2.669,14.295-7.523,27.792-22.003,29.137l0,0c-10.991,1.021-19.971,9.207-22.002,20.057l0,0  c-2.675,14.294-17.055,23.198-31.043,19.221c-10.617-3.019-21.949,1.371-27.761,10.755c-0.457,0.738-0.949,1.441-1.467,2.113  c3.75,0.664,7.382,2.187,10.573,4.596l0,0c11.607,8.761,28.232,5.653,35.89-6.709c5.813-9.384,17.144-13.773,27.761-10.755  c13.988,3.977,28.368-4.927,31.043-19.221l0,0c2.03-10.85,11.011-19.036,22.002-20.057l0,0c14.48-1.345,24.673-14.842,22.003-29.137  c-2.026-10.851,3.391-21.729,13.27-26.651l0,0c13.016-6.485,17.645-22.753,9.992-35.118  C427.039,216.182,428.16,204.081,435.595,195.923z"
                    data-original="#FF901D"
                    className="active-path"
                    data-old_color="#FF901D"
                  />
                  <circle
                    style={{ fill: '#FFFFFF' }}
                    cx={256}
                    cy="192.85"
                    r="135.44"
                    data-original="#E1EFFB"
                    className
                    data-old_color="#E1EFFB"
                  />
                  <path
                    style={{ fill: '#FFFFFF' }}
                    d="M256,57.412c-7.666,0-15.18,0.647-22.498,1.871C297.594,70,346.444,125.717,346.444,192.853  s-48.85,122.852-112.942,133.569c7.318,1.224,14.832,1.871,22.498,1.871c74.802,0,135.44-60.639,135.44-135.44  S330.802,57.412,256,57.412z"
                    data-original="#C3D8E5"
                    className
                    data-old_color="#C3D8E5"
                  />
                  <path
                    style={{ fill: '#FDD008' }}
                    d="M275.087,245.483V111.509c0-1.195-0.969-2.164-2.164-2.164h-25.288c-0.509,0-1.002,0.179-1.391,0.506  L200.3,148.407c-0.893,0.75-1.032,2.072-0.314,2.991l15.068,19.284c0.751,0.961,2.147,1.112,3.086,0.334l19.206-15.902  c1.411-1.168,3.545-0.165,3.545,1.667v88.702c0,1.195-0.969,2.164-2.164,2.164h-26.558c-1.195,0-2.164,0.969-2.164,2.164v22.935  c0,1.195,0.969,2.164,2.164,2.164h87.229c1.195,0,2.164-0.969,2.164-2.164v-22.935c0-1.195-0.969-2.164-2.164-2.164h-22.145  C276.056,247.648,275.087,246.679,275.087,245.483z"
                    data-original="#61AFF6"
                    className
                    data-old_color="#61AFF6"
                  />
                  <path
                    d="M120.773,182.096c4.097,0.558,7.879-2.33,8.43-6.435C137.678,112.523,192.188,64.912,256,64.912  c63.827,0,118.339,47.625,126.801,110.78c0.505,3.767,3.724,6.504,7.424,6.504c0.332,0,0.667-0.022,1.005-0.067  c4.105-0.55,6.987-4.324,6.437-8.429c-4.557-34.01-21.31-65.298-47.175-88.102C324.39,62.586,290.833,49.913,256,49.913  c-34.827,0-68.38,12.669-94.479,35.674c-25.863,22.796-42.619,54.077-47.183,88.079C113.787,177.77,116.668,181.545,120.773,182.096  z"
                    data-original="#000000"
                    className
                    style={{ fill: '#000000' }}
                  />
                  <path
                    d="M397.85,210.581c0.509-4.111-2.411-7.855-6.521-8.364c-4.116-0.508-7.855,2.411-8.364,6.521  C375.058,272.62,320.475,320.793,256,320.793c-64.522,0-119.11-48.212-126.976-112.146c-0.506-4.11-4.241-7.034-8.359-6.527  c-4.111,0.506-7.033,4.248-6.527,8.359c8.79,71.44,69.777,125.313,141.863,125.313C328.033,335.792,389.015,281.963,397.85,210.581z  "
                    data-original="#000000"
                    className
                    style={{ fill: '#000000' }}
                  />
                  <path
                    d="M212.167,240.148c-5.329,0-9.664,4.336-9.664,9.664v22.934c0,5.329,4.335,9.664,9.664,9.664h87.229  c5.329,0,9.664-4.336,9.664-9.664v-22.934c0-5.329-4.335-9.664-9.664-9.664h-16.81V111.509c0-5.329-4.335-9.664-9.664-9.664h-25.288  c-2.269,0-4.476,0.803-6.212,2.261l-45.944,38.556c-4.009,3.365-4.625,9.23-1.402,13.353l15.068,19.284  c1.598,2.044,3.994,3.377,6.573,3.657c2.582,0.28,5.205-0.509,7.204-2.164l10.469-8.668v72.023L212.167,240.148L212.167,240.148z   M242.839,148.037c-3.425-1.611-7.361-1.113-10.277,1.301l-14.979,12.402l-8.517-10.899l40.51-33.996h18.012v128.639  c0,5.329,4.335,9.664,9.664,9.664h16.81v12.265h-76.559v-12.265h21.223c5.329,0,9.664-4.335,9.664-9.664v-88.702  C248.389,152.998,246.263,149.647,242.839,148.037z"
                    data-original="#000000"
                    className
                    style={{ fill: '#000000' }}
                  />
                  <path
                    d="M459.383,429.1l-67.57-105.693c7.606-1.576,14.464-5.872,19.187-12.126c5.445-7.21,7.617-16.44,5.958-25.321  c-1.404-7.518,2.397-15.151,9.243-18.562c8.087-4.028,14.143-11.323,16.616-20.013c2.472-8.69,1.164-18.081-3.591-25.764  c-4.025-6.503-3.238-14.993,1.913-20.646c6.085-6.678,9.098-15.668,8.264-24.664c-0.834-8.997-5.446-17.28-12.656-22.727  c-6.103-4.61-8.436-12.811-5.674-19.944c3.262-8.426,2.823-17.896-1.204-25.985c-4.027-8.088-11.321-14.145-20.011-16.62  c-7.356-2.095-12.495-8.899-12.496-16.547c-0.002-9.035-3.833-17.708-10.51-23.795s-15.668-9.1-24.663-8.269  c-7.618,0.706-14.865-3.785-17.63-10.916c-3.266-8.425-9.971-15.128-18.396-18.392c-8.425-3.263-17.896-2.827-25.984,1.199  c-6.847,3.407-15.23,1.841-20.383-3.81C273.709,3.829,265.035,0,256,0s-17.708,3.829-23.797,10.504  c-5.153,5.65-13.537,7.218-20.383,3.81c-8.089-4.026-17.559-4.462-25.984-1.199c-8.425,3.264-15.13,9.967-18.396,18.392  c-2.764,7.131-10.023,11.62-17.629,10.916c-8.999-0.832-17.986,2.181-24.663,8.269c-6.677,6.087-10.508,14.76-10.51,23.795  c-0.001,7.648-5.14,14.453-12.496,16.547c-8.69,2.474-15.984,8.532-20.011,16.62s-4.466,17.559-1.204,25.985  c2.761,7.132,0.428,15.334-5.674,19.944c-7.209,5.447-11.822,13.73-12.656,22.727c-0.833,8.996,2.179,17.986,8.264,24.664  c5.151,5.653,5.938,14.143,1.913,20.647c-4.755,7.683-6.063,17.074-3.591,25.764c2.473,8.69,8.529,15.985,16.616,20.013  c6.846,3.411,10.647,11.044,9.243,18.562c-1.659,8.882,0.513,18.111,5.958,25.321c4.723,6.253,11.581,10.55,19.187,12.126  L52.617,429.1c-2.487,3.891-2.545,8.761-0.152,12.71s6.746,6.149,11.337,5.746l65.948-5.803l22.413,62.293  c1.564,4.345,5.385,7.364,9.974,7.878c0.459,0.051,0.916,0.077,1.37,0.077c4.079,0,7.863-2.049,10.101-5.549L256,377.574  l82.391,128.876c2.238,3.501,6.021,5.549,10.101,5.549c0.454,0,0.912-0.025,1.371-0.077c4.589-0.515,8.41-3.533,9.974-7.879  l22.414-62.293l65.947,5.803c4.601,0.403,8.945-1.797,11.338-5.745C461.928,437.86,461.87,432.99,459.383,429.1z M68.511,432.084  l65.878-103.047c2.344,2.383,4.016,5.439,4.659,8.873c1.211,6.472,4.393,12.375,9,16.946l-46.915,74.357L68.511,432.084z   M145.936,442.436l-2.849-7.919c-1.847-5.133-6.932-8.389-12.369-7.907l-10.808,0.951l40.961-64.921  c5.997,1.919,12.493,2.073,18.643,0.324c5.19-1.476,10.67-0.368,14.865,2.691L145.936,442.436z M164.229,493.277l-11.852-32.941  l52.314-82.915c4.363,3.922,9.757,6.637,15.619,7.733c4.423,0.826,8.933,0.702,13.236-0.302L164.229,493.277z M260.673,361.113  c-0.48-0.106-0.97-0.163-1.462-0.174c-1.068-0.106-2.138-0.178-3.211-0.178c-1.072,0-2.141,0.072-3.209,0.178  c-0.495,0.01-0.986,0.068-1.468,0.174c-5.236,0.76-10.321,2.79-14.728,6.117c-3.909,2.95-8.715,4.078-13.53,3.18  c-4.815-0.9-8.887-3.689-11.467-7.854c-0.546-0.881-1.141-1.719-1.761-2.532c-0.095-0.124-0.191-0.247-0.295-0.365  c-7.979-10.15-21.515-14.709-34.132-11.122c-4.711,1.34-9.6,0.658-13.765-1.921c-4.165-2.579-6.955-6.651-7.856-11.466  c-1.921-10.265-8.729-18.744-17.8-23.104c-0.464-0.271-0.944-0.487-1.436-0.649c-2.962-1.249-6.132-2.085-9.444-2.392  c-4.877-0.453-9.189-2.855-12.141-6.764c-2.952-3.909-4.083-8.714-3.183-13.53c2.627-14.071-4.486-28.356-17.299-34.739  c-4.384-2.184-7.537-5.982-8.878-10.693c-1.34-4.712-0.659-9.601,1.919-13.766c7.534-12.171,6.061-28.062-3.581-38.643  c-3.3-3.62-4.867-8.301-4.416-13.178c0.452-4.878,2.853-9.19,6.762-12.143c11.421-8.629,15.789-23.978,10.62-37.327  c-1.769-4.568-1.54-9.498,0.644-13.883c2.183-4.385,5.98-7.539,10.692-8.88c13.767-3.921,23.384-16.656,23.387-30.97  c0.001-4.899,1.995-9.413,5.615-12.714c3.62-3.3,8.3-4.871,13.178-4.418c14.259,1.321,27.821-7.083,32.995-20.43  c1.771-4.567,5.262-8.058,9.83-9.827c4.567-1.769,9.499-1.542,13.883,0.641c12.816,6.377,28.502,3.445,38.148-7.131  c3.301-3.619,7.816-5.612,12.715-5.612s9.414,1.993,12.715,5.612c9.645,10.576,25.333,13.508,38.148,7.131  c4.385-2.182,9.315-2.41,13.883-0.641c4.568,1.769,8.059,5.26,9.829,9.827c5.174,13.346,18.734,21.749,32.996,20.43  c4.875-0.453,9.556,1.118,13.177,4.418c3.62,3.301,5.614,7.815,5.615,12.714c0.002,14.314,9.619,27.049,23.387,30.97  c4.711,1.341,8.508,4.495,10.691,8.88c2.184,4.385,2.412,9.315,0.643,13.883c-5.169,13.349-0.801,28.698,10.62,37.327  c3.909,2.953,6.31,7.265,6.762,12.143s-1.116,9.558-4.416,13.178c-9.642,10.581-11.114,26.471-3.581,38.642  c2.578,4.166,3.259,9.054,1.918,13.766c-1.34,4.712-4.493,8.509-8.878,10.693c-12.812,6.383-19.925,20.669-17.298,34.739  c0.899,4.816-0.231,9.62-3.183,13.53c-2.952,3.909-7.264,6.311-12.142,6.764c-3.315,0.308-6.487,1.145-9.452,2.396  c-0.488,0.161-0.965,0.376-1.425,0.644c-9.072,4.359-15.882,12.839-17.803,23.105c-0.901,4.815-3.691,8.887-7.856,11.466  c-4.165,2.579-9.055,3.26-13.765,1.922c-12.62-3.589-26.158,0.973-34.136,11.127c-0.1,0.114-0.192,0.233-0.284,0.352  c-0.622,0.815-1.219,1.655-1.767,2.539c-2.579,4.165-6.652,6.954-11.467,7.854c-4.813,0.898-9.62-0.229-13.53-3.18  C270.995,363.902,265.911,361.873,260.673,361.113z M347.771,493.277l-69.325-108.439c2.404,0.562,4.869,0.861,7.35,0.861  c1.964,0,3.938-0.18,5.894-0.545c5.862-1.096,11.255-3.81,15.618-7.732l52.315,82.917L347.771,493.277z M381.282,426.61  c-5.442-0.479-10.522,2.773-12.369,7.908l-2.85,7.922l-48.444-76.782c4.196-3.06,9.676-4.169,14.868-2.692  c6.148,1.748,12.644,1.594,18.641-0.324l40.959,64.919L381.282,426.61z M410.864,429.213l-46.913-74.355  c4.608-4.571,7.79-10.475,9.002-16.948c0.643-3.434,2.314-6.49,4.658-8.872l65.878,103.046L410.864,429.213z"
                    data-original="#000000"
                    className
                    style={{ fill: '#000000' }}
                  />
                </g>{' '}
              </svg>